<svg width="37" height="37" viewBox="0 0 37 37" fill="none" xmlns="http://www.w3.org/2000/svg">
<g filter="url(#filter0_d_122_465)">
<path d="M16.5446 9.43973C17.3495 7.99625 17.7517 7.27451 18.3533 7.27451C18.955 7.27451 19.3571 7.99625 20.1621 9.43973L20.3705 9.81331C20.5992 10.2237 20.7135 10.4289 20.8914 10.5643C21.0693 10.6996 21.2917 10.7498 21.7364 10.8502L22.1405 10.9417C23.7034 11.2955 24.4842 11.4722 24.6703 12.07C24.8558 12.6672 24.3234 13.2905 23.258 14.5364L22.9823 14.8585C22.6799 15.2124 22.528 15.3896 22.46 15.6082C22.3921 15.8274 22.4149 16.0637 22.4607 16.5358L22.5026 16.9659C22.6633 18.6286 22.744 19.4596 22.2574 19.8287C21.7707 20.1985 21.0388 19.8611 19.5763 19.1877L19.197 19.0136C18.7815 18.8217 18.5738 18.7264 18.3533 18.7264C18.1329 18.7264 17.9251 18.8217 17.509 19.0136L17.131 19.1877C15.6678 19.8611 14.936 20.1979 14.4499 19.8294C13.9626 19.4596 14.0433 18.6286 14.2041 16.9659L14.246 16.5364C14.2917 16.0637 14.3146 15.8274 14.246 15.6088C14.1787 15.3896 14.0268 15.2124 13.7244 14.8591L13.4487 14.5364C12.3832 13.2911 11.8508 12.6679 12.0364 12.07C12.2225 11.4722 13.004 11.2949 14.5668 10.9417L14.9709 10.8502C15.415 10.7498 15.6367 10.6996 15.8152 10.5643C15.9931 10.4289 16.1075 10.2237 16.3362 9.81331L16.5446 9.43973Z" fill="#E1CB00"/>
</g>
<defs>
<filter id="filter0_d_122_465" x="0.529412" y="0.901957" width="35.6478" height="35.6479" filterUnits="userSpaceOnUse" color-interpolation-filters="sRGB">
<feFlood flood-opacity="0" result="BackgroundImageFix"/>
<feColorMatrix in="SourceAlpha" type="matrix" values="0 0 0 0 0 0 0 0 0 0 0 0 0 0 0 0 0 0 127 0" result="hardAlpha"/>
<feOffset dy="5.09804"/>
<feGaussianBlur stdDeviation="5.73529"/>
<feComposite in2="hardAlpha" operator="out"/>
<feColorMatrix type="matrix" values="0 0 0 0 0 0 0 0 0 0 0 0 0 0 0 0 0 0 0.2 0"/>
<feBlend mode="normal" in2="BackgroundImageFix" result="effect1_dropShadow_122_465"/>
<feBlend mode="normal" in="SourceGraphic" in2="effect1_dropShadow_122_465" result="shape"/>
</filter>
</defs>
</svg>
