<svg width="14" height="12" viewBox="0 0 14 12" fill="none" xmlns="http://www.w3.org/2000/svg">
<path d="M5.92787 10.767L5.92715 10.7664C4.2334 9.2305 2.86782 7.98941 1.91983 6.82962C0.977339 5.67655 0.5 4.66505 0.5 3.59673C0.5 1.85276 1.85811 0.5 3.59673 0.5C4.58345 0.5 5.53877 0.961929 6.16009 1.68586L6.53951 2.12793L6.91893 1.68586C7.54025 0.961929 8.49557 0.5 9.48229 0.5C11.2209 0.5 12.579 1.85276 12.579 3.59673C12.579 4.66505 12.1017 5.67655 11.1592 6.82962C10.2112 7.98941 8.84562 9.2305 7.15187 10.7664L7.15115 10.767L6.53951 11.3238L5.92787 10.767Z" fill="white" stroke="#F8F8F8"/>
</svg>
